<svg xmlns="http://www.w3.org/2000/svg" viewBox="0 0 24 24">
  <defs>
    <linearGradient id="ticketGradient" x1="0%" y1="0%" x2="100%" y2="100%">
      <stop offset="0%" style="stop-color:#d4af37;stop-opacity:1" />
      <stop offset="100%" style="stop-color:#f4d03f;stop-opacity:1" />
    </linearGradient>
  </defs>
  <path d="M15 5v2m0 4v2m0 4v2M5 5a2 2 0 0 0-2 2v3a2 2 0 1 0 0 6v3a2 2 0 0 0 2 2h14a2 2 0 0 0 2-2v-3a2 2 0 1 0 0-6V7a2 2 0 0 0-2-2H5z" 
        fill="url(#ticketGradient)" 
        stroke="#3d2817" 
        stroke-width="1.5" 
        stroke-linecap="round" 
        stroke-linejoin="round"/>
</svg>
